<?xml version="1.0" encoding="UTF-8"?><svg id="Layer_2" xmlns="http://www.w3.org/2000/svg" xmlns:xlink="http://www.w3.org/1999/xlink" viewBox="0 0 1000 199.4109"><defs><radialGradient id="radial-gradient" cx="-70.3335" cy="215.5782" fx="-70.3335" fy="215.5782" r="89.1435" gradientTransform="translate(132.9119 -144.5496) scale(.971)" gradientUnits="userSpaceOnUse"><stop offset="0" stop-color="#00382b"/><stop offset=".1311" stop-color="#00382b" stop-opacity=".7771"/><stop offset=".4401" stop-color="#00382b" stop-opacity=".3493"/><stop offset=".7265" stop-color="#00382b" stop-opacity=".0897"/><stop offset=".9664" stop-color="#00382b" stop-opacity="0"/></radialGradient><radialGradient id="radial-gradient-2" cx="5827.1512" cy="-10606.6828" fx="5827.1512" fy="-10606.6828" r="89.1435" gradientTransform="translate(5792.9599 -10164.994) rotate(-180) scale(.971)" xlink:href="#radial-gradient"/><radialGradient id="radial-gradient-3" cx="819.5601" cy="364.5772" fx="819.5601" fy="364.5772" r="74.9942" gradientTransform="translate(107.7523 -249.7463) scale(.9526)" gradientUnits="userSpaceOnUse"><stop offset="0" stop-color="#00382b"/><stop offset="1" stop-color="#00382b" stop-opacity="0"/></radialGradient></defs><g id="Components"><g id="ed4b7507-4e27-488e-ae2d-a76af7352560_x40_7"><polygon points="595.9274 170.5473 547.7659 170.5473 507.243 124.6083 466.7206 170.5473 421.2149 170.5473 484.8934 99.1253 485.3147 98.6667 451.1491 60.5798 450.9473 60.3597 317.5448 60.3597 317.5448 88.9248 407.7682 88.9248 407.7682 120.0585 317.5448 120.0585 317.5448 170.5473 277.2787 170.5473 277.2787 28.8225 470.8058 28.8225 509.8993 72.9269 548.7915 28.8225 594.4806 28.8225 531.6264 98.043 595.9274 170.5473" style="fill:#fff;"/><polygon points="782.0661 28.8225 782.0661 170.5473 746.5082 170.5473 653.2618 75.5137 653.2618 170.5473 614.4246 170.5473 614.4246 28.8225 657.5304 28.8225 743.2289 117.3248 743.2289 28.8225 782.0661 28.8225" style="fill:#6df261;"/><polygon points="975.2758 170.5473 927.1139 170.5473 887.2398 125.3434 820.6079 199.4109 774.829 199.4109 864.462 99.3707 864.8833 98.9121 801.9923 28.8225 850.1542 28.8225 888.7244 72.3346 953.5561 0 1000 0 911.3842 98.5046 975.2758 170.5473" style="fill:#6df261;"/><path d="M199.1204,99.7055c.0014-7.9289-.9272-15.64-2.6747-23.0348-.2908-1.2305-1.8365-1.648-2.7293-.7538l-58.955,59.041-35.2008-35.2524L30.327,169.0402c-.6422.6431-.6431,1.6978.0096,2.3303,17.9157,17.3595,42.3275,28.0451,69.224,28.0404,27.4909.0048,52.3858-11.1584,70.4018-29.2007,8.7218-8.7348,15.8404-19.0951,20.8615-30.5767,1.1977-2.7564,2.283-5.5765,3.2413-8.4555,0-.0097.005-.0244.0048-.0342,1.6088-4.8524,2.8303-9.8799,3.6813-15.0333.1353-.7201.2597-1.4392.3618-2.155.6647-4.6542,1.0083-9.412,1.0073-14.2501Z" style="fill:#6df261;"/><path d="M168.7846,28.0404C150.8688,10.6811,126.4573-.0047,99.5606,0c-27.4909-.0048-52.3858,11.1584-70.4018,29.2008-8.7218,8.7347-15.8402,19.095-20.8613,30.5766-1.1977,2.7564-2.283,5.5766-3.2415,8.4555,0,.0098-.0048.0245-.0048.0343-1.6036,4.8368-2.8216,9.8477-3.6724,14.9837-.1393.7365-.2668,1.4719-.3711,2.204C.3428,90.1091-.0008,94.8669.0002,99.705c-.0014,7.9289.9275,15.64,2.6748,23.0348.2908,1.2306,1.8365,1.648,2.7293.7538l58.9548-59.041.0006.0006,35.2008,35.2523L168.7942,30.3707c.6422-.6431.6431-1.6978-.0096-2.3303Z" style="fill:#6df261;"/><path d="M1.5355,82.533c-.0974.5044-.2108,1.0253-.2921,1.5452-.0063.0312-.0127.0584-.0185.0867-.075.4304-.1563.8617-.2171,1.2901C.3427,90.1092-.001,94.8666,0,99.7049c-.0015,7.9287.9274,15.6393,2.6747,23.0345.2911,1.2307,1.8364,1.6485,2.7292.7536l58.9552-59.0404C43.3636,43.4424,7.7919,54.2649,1.5355,82.533Z" style="fill:url(#radial-gradient); opacity:.66;"/><path d="M197.5851,116.8775c.0974-.5044.2108-1.0253.2921-1.5452.0063-.0312.0127-.0584.0185-.0867.075-.4304.1563-.8617.2171-1.2901.665-4.6542,1.0087-9.4117,1.0078-14.2499.0015-7.9287-.9274-15.6393-2.6747-23.0345-.2911-1.2307-1.8364-1.6485-2.7292-.7536l-58.9552,59.0404c20.9956,21.0102,56.5673,10.1877,62.8237-18.0804Z" style="fill:url(#radial-gradient-2); opacity:.66;"/><path d="M911.3842,98.5046l63.8916,72.0426h-48.162l-39.8741-45.2039,24.1444-26.8387ZM888.7244,72.3346l-38.5702-43.5121h-48.162l62.3598,69.4975.5312.592,23.8411-26.5774Z" style="fill:url(#radial-gradient-3); opacity:.66;"/></g></g></svg>